<svg width="18" height="18" viewBox="0 0 18 18" fill="none" xmlns="http://www.w3.org/2000/svg">
<g clip-path="url(#clip0_3070_29682)">
<path d="M14.625 15.75H3.375C3.07675 15.7496 2.79084 15.6309 2.57995 15.4201C2.36906 15.2092 2.2504 14.9232 2.25 14.625V3.375C2.2504 3.07675 2.36906 2.79084 2.57995 2.57995C2.79084 2.36906 3.07675 2.2504 3.375 2.25H9V3.375H3.375V14.625H14.625V9H15.75V14.625C15.7496 14.9232 15.6309 15.2092 15.4201 15.4201C15.2092 15.6309 14.9232 15.7496 14.625 15.75Z" fill="#0683AA"/>
<path d="M11.25 1.125V2.25H14.9546L10.125 7.07963L10.9204 7.875L15.75 3.04537V6.75H16.875V1.125H11.25Z" fill="#0683AA"/>
</g>
<defs>
<clipPath id="clip0_3070_29682">
<rect width="18" height="18" fill="white"/>
</clipPath>
</defs>
</svg>
